<?xml version="1.0" encoding="utf-8"?>
<!-- Generator: Adobe Illustrator 24.2.1, SVG Export Plug-In . SVG Version: 6.00 Build 0)  -->
<svg version="1.1" id="Слой_1" xmlns="http://www.w3.org/2000/svg" xmlns:xlink="http://www.w3.org/1999/xlink" x="0px" y="0px"
	 viewBox="0 0 2825.6 2000" style="enable-background:new 0 0 2825.6 2000;" xml:space="preserve">
<style type="text/css">
	.st0{opacity:0.95;fill:url(#SVGID_1_);enable-background:new    ;}
	.st1{fill:#96BFE6;}
	.st2{opacity:0.95;fill:url(#SVGID_2_);enable-background:new    ;}
	.st3{fill:#4598E6;}
	.st4{fill:url(#SVGID_3_);}
	.st5{opacity:0.95;fill:url(#SVGID_4_);enable-background:new    ;}
	.st6{fill:url(#SVGID_5_);}
	.st7{fill:url(#SVGID_6_);}
	.st8{fill:url(#SVGID_7_);}
	.st9{fill:url(#SVGID_8_);}
	.st10{fill:url(#SVGID_9_);}
	.st11{fill:#FFFFFF;}
	.st12{fill:url(#SVGID_10_);}
	.st13{fill:url(#SVGID_11_);}
	.st14{opacity:0.95;fill:url(#SVGID_12_);enable-background:new    ;}
	.st15{fill:#E65353;}
	.st16{fill:#EEA987;}
	.st17{fill:#D98B52;}
	.st18{fill:#B84343;}
	.st19{fill:#C78D71;}
	.st20{fill:#EEA886;}
	.st21{fill:#16202E;}
	.st22{fill:#FAA146;}
	.st23{fill:#8E4F3A;}
	.st24{fill:#633029;}
	.st25{fill:#323657;}
	.st26{fill:#FCCCA2;}
	.st27{fill:#E55353;}
	.st28{fill:#A77860;}
	.st29{fill:#EBEEFF;}
	.st30{fill:#353A3D;}
	.st31{fill:#81807E;}
	.st32{fill:#2D3133;}
	.st33{fill:#DECBC4;}
	.st34{fill:#495055;}
	.st35{fill:#252E3B;}
	.st36{fill:#3C4145;}
	.st37{fill:#B3A5A0;}
	.st38{fill:#51565C;}
	.st39{fill:#F5E2D9;}
	.st40{fill:#AD9F99;}
	.st41{fill:#69737A;}
	.st42{fill:#181929;}
	.st43{fill:#22243B;}
	.st44{fill:#292C47;}
	.st45{fill:#CFBEB6;}
	.st46{fill:#3A3F47;}
	.st47{fill:#23263D;}
	.st48{fill:#D44040;}
	.st49{fill:#EDDAD3;}
	.st50{fill:#8F5C28;}
	.st51{opacity:0.95;}
	.st52{fill:url(#SVGID_13_);}
	.st53{fill:url(#SVGID_14_);}
	.st54{fill:url(#SVGID_15_);}
	.st55{fill:url(#SVGID_16_);}
	.st56{fill:url(#SVGID_17_);}
	.st57{fill:url(#SVGID_18_);}
	.st58{fill:url(#SVGID_19_);}
	.st59{fill:url(#SVGID_20_);}
	.st60{fill:url(#SVGID_21_);}
	.st61{fill:url(#SVGID_22_);}
	.st62{fill:url(#SVGID_23_);}
</style>
<linearGradient id="SVGID_1_" gradientUnits="userSpaceOnUse" x1="1432.3008" y1="638.3841" x2="1391.1107" y2="1384.9441" gradientTransform="matrix(1 0 0 -1 0 2000)">
	<stop  offset="0" style="stop-color:#D1D7E0"/>
	<stop  offset="1" style="stop-color:#EBEBFF"/>
</linearGradient>
<path class="st0" d="M1189.6,415.1h410.1c32.4,0,58.7,26.3,58.7,58.7v410.1c0,32.4-26.3,58.7-58.7,58.7h-410.1
	c-32.4,0-58.7-26.3-58.7-58.7V473.7C1130.9,441.3,1157.2,415.1,1189.6,415.1z"/>
<rect x="1272.5" y="822.4" class="st1" width="244.2" height="12.1"/>
<rect x="1307.1" y="860.5" class="st1" width="175" height="12.1"/>
<linearGradient id="SVGID_2_" gradientUnits="userSpaceOnUse" x1="2106.072" y1="430.2539" x2="2106.072" y2="1198.8539" gradientTransform="matrix(1 0 0 -1 0 2000)">
	<stop  offset="0" style="stop-color:#D1D7E0"/>
	<stop  offset="1" style="stop-color:#EBEBFF"/>
</linearGradient>
<path class="st2" d="M1814.2,598h583.7c38.2,0,69.1,30.9,69.1,69.1v709.1c0,38.2-30.9,69.1-69.1,69.1h-583.7
	c-38.2,0-69.1-30.9-69.1-69.1V667.1C1745.1,628.9,1776.1,598,1814.2,598z"/>
<rect x="2072.4" y="1097.9" class="st3" width="57.3" height="10.6"/>
<rect x="1855.1" y="1195" class="st1" width="333.2" height="20.5"/>
<rect x="1855.1" y="1293.6" class="st1" width="269.4" height="20.5"/>
<rect x="1855.1" y="1244.3" class="st1" width="157.9" height="20.5"/>
<path class="st3" d="M2275.4,682.5v10.4h61.1v57.3h10.4v-67.7H2275.4z M1860.8,750.2h10.4v-57.3h61v-10.4h-71.4L1860.8,750.2z
	 M2336.4,1045.8v57.3h-61.1v10.4h71.4v-67.7H2336.4z M1871.2,1045.8h-10.4v67.7h71.4v-10.4h-61L1871.2,1045.8z"/>
<path class="st3" d="M2314.5,1315.6c-33.7,0-61.1-27.3-61.1-61.1c0-33.7,27.3-61.1,61.1-61.1c33.7,0,61.1,27.3,61.1,61.1
	c0,0,0,0,0,0.1C2375.5,1288.3,2348.2,1315.6,2314.5,1315.6z M2314.5,1205.4c-27.2,0-49.2,22-49.2,49.2s22,49.2,49.2,49.2
	s49.2-22,49.2-49.2l0,0C2363.7,1227.4,2341.7,1205.4,2314.5,1205.4z"/>
<polygon class="st3" points="2310.6,1278.6 2282.9,1250.9 2291.2,1242.5 2310.6,1261.9 2337.8,1234.7 2346.1,1243.1 "/>
<linearGradient id="SVGID_3_" gradientUnits="userSpaceOnUse" x1="369.757" y1="208.1789" x2="2351.207" y2="208.1789" gradientTransform="matrix(1 0 0 -1 0 2000)">
	<stop  offset="1.000000e-02" style="stop-color:#1A2257"/>
	<stop  offset="1" style="stop-color:#5E60F2"/>
</linearGradient>
<path class="st4" d="M2351.2,1791.8c0,25.6-443.6,46.4-990.7,46.4s-990.7-20.8-990.7-46.4s443.6-46.4,990.7-46.4
	S2351.2,1766.2,2351.2,1791.8z"/>
<linearGradient id="SVGID_4_" gradientUnits="userSpaceOnUse" x1="1394.6219" y1="904.8738" x2="1394.6219" y2="1466.8839" gradientTransform="matrix(1 0 0 -1 0 2000)">
	<stop  offset="0" style="stop-color:#D1D7E0"/>
	<stop  offset="1" style="stop-color:#EBEBFF"/>
</linearGradient>
<rect x="1216.9" y="434.8" class="st5" width="355.5" height="305"/>
<linearGradient id="SVGID_5_" gradientUnits="userSpaceOnUse" x1="-1918.457" y1="583.0638" x2="-1791.067" y2="583.0638" gradientTransform="matrix(-1 0 0 -1 -1099.54 2000)">
	<stop  offset="1.000000e-02" style="stop-color:#1A2257"/>
	<stop  offset="1" style="stop-color:#5E60F2"/>
</linearGradient>
<path class="st6" d="M694.3,1656.6c29.6-20.8,64.3-165.9,66.3-252.3c1.1-44.3,14.2-62.7,25.7-79c11-15.6,20.6-29,15-59.8
	c-10.6-58.9,17.3-84.4,17.6-84.6l-3.2-3.7c-1.2,1.1-30.3,27.3-19.2,89.2c5.2,28.8-3.4,40.9-14.2,56.1c-11.4,16-25.5,35.9-26.6,81.7
	c-2.2,92.7-37.6,229.7-64.2,248.4L694.3,1656.6z"/>
<linearGradient id="SVGID_6_" gradientUnits="userSpaceOnUse" x1="-1819.4391" y1="477.8687" x2="-1587.8268" y2="477.8687" gradientTransform="matrix(-1 0 0 -1 -1099.54 2000)">
	<stop  offset="1.000000e-02" style="stop-color:#1A2257"/>
	<stop  offset="1" style="stop-color:#5E60F2"/>
</linearGradient>
<path class="st7" d="M632.3,1614.3c-2.8-6.3-5.7-12.9-9-19.8c-16.9-35.7-31.9-41.6-56.7-51.3c-6.1-2.4-12.9-5.1-20.5-8.5
	c-35.5-16-28.7-39.5-22.6-60.3c0.8-2.9,1.7-5.8,2.4-8.7c3.1-12.2-2.9-18.3-12-27.6c-6.8-6.9-15.2-15.5-21.6-29
	c-7.1-14.8-3.5-22.8,0.8-26.8c9-8.6,29.8-7,49.4,3.7c6.1,3.3,11.1,8.6,16.4,14.2c12.5,13.1,28.1,29.4,67.5,29.6
	c22.5,0.1,34.8,3.2,41.1,10.4c7.2,8.1,5.9,20.3,4,37.1c-0.7,5.8-1.4,12.4-1.8,19.6c-2.7,42.5,22.4,73.2,22.7,73.5
	c15,17.9,33.5,54.9,25.5,77.8c-3.3,9.6-10.8,15.6-22.2,17.9c-4.1,0.9-8.3,1.3-12.5,1.3C655.7,1667.4,645.6,1644.6,632.3,1614.3z
	 M540.3,1390.3c-17.5-9.6-36.3-11.5-43.7-4.5c-5.6,5.3-3,14.5,0.3,21.2c6.1,12.8,13.9,20.7,20.7,27.7c9.5,9.7,17,17.4,13.2,32.3
	c-0.8,2.9-1.6,5.9-2.5,8.8c-6,20.7-11.8,40.2,19.9,54.4c7.4,3.3,14.3,6,20.3,8.4c25,9.8,41.6,16.3,59.3,53.8c3.3,7,6.2,13.6,9,19.9
	c15.3,34.7,24.5,55.7,58,48.9c9.6-1.9,15.8-6.9,18.6-14.7c7-20.1-9.8-55.3-24.7-73c-1.1-1.3-26.6-32.4-23.8-77
	c0.5-7.3,1.2-13.9,1.9-19.8c1.8-15.6,3-26.8-2.8-33.3c-5.3-5.9-16.8-8.6-37.5-8.7c-41.5-0.2-57.8-17.3-71-31.1
	C550.3,1398,545.7,1393.3,540.3,1390.3L540.3,1390.3z"/>
<linearGradient id="SVGID_7_" gradientUnits="userSpaceOnUse" x1="-1799.687" y1="444.2188" x2="-1625.8669" y2="444.2188" gradientTransform="matrix(-1 0 0 -1 -1099.54 2000)">
	<stop  offset="1.000000e-02" style="stop-color:#1A2257"/>
	<stop  offset="1" style="stop-color:#5E60F2"/>
</linearGradient>
<path class="st8" d="M695.3,1695.7l4.9-0.3c-0.2-4.6-6.4-112.9-49.9-144.5c-47.7-34.8-62.7-72.1-69.9-97.2
	c-8.4-29.5-51.4-37.4-53.2-37.8l-0.8,4.8c0.4,0.1,41.8,7.7,49.3,34.3c7.4,25.8,22.8,64.2,71.7,99.8
	C689,1585.1,695.2,1694.6,695.3,1695.7z"/>
<linearGradient id="SVGID_8_" gradientUnits="userSpaceOnUse" x1="-2009.7991" y1="620.7482" x2="-1748.7816" y2="620.7482" gradientTransform="matrix(-1 0 0 -1 -1099.54 2000)">
	<stop  offset="1.000000e-02" style="stop-color:#1A2257"/>
	<stop  offset="1" style="stop-color:#5E60F2"/>
</linearGradient>
<path class="st9" d="M687,1720c-10.2-5.1-9.9-25.6-9.3-56.6c0.7-39.2,1.7-92.8-18.8-142.2c-21.8-52.4-2.4-67.7,16.4-82.6
	c21-16.6,40.9-32.3,2.8-103c-17.5-32.5-23.1-54.5-17.5-69.2c5.5-14.5,21-20.2,37.3-26.2c28.3-10.3,60.3-22.1,56.2-81.9
	c-1.3-18.3,0.9-29.6,6.8-35.5c6.4-6.4,15.8-5.7,26.8-4.9c16.5,1.2,35.2,2.6,51.5-18.7c1.7-5.3,17.3-52.7,35.9-60.9
	c3.6-1.7,7.8-1.7,11.4,0.1l0,0c12.9,6.2,20.3,13.4,22.8,22.3c4.3,15.4-7,32.8-20,52.9c-20.5,31.6-43.8,67.5-19.7,110.2
	c31.9,56.4,15.1,76.2-8.3,103.5c-13.4,15.7-28.5,33.4-38.7,62.3c-8.2,23.3,5.8,45.5,19.2,66.9c16.9,26.9,34.3,54.8-2.4,78.9
	c-60.7,39.9-120.7,170.3-121.3,171.6l-0.2,0.5l-0.5,0.4c-11.2,8.8-19.3,13-25.5,13C690.3,1721.2,688.6,1720.8,687,1720z
	 M836.8,1531.6c32.7-21.5,18-45,1-72.2c-13.4-21.4-28.6-45.7-19.7-71.2c10.4-29.8,25.9-47.9,39.6-63.9c22.9-26.8,38-44.5,7.7-97.9
	c-25.6-45.3-0.4-84,19.8-115.2c12.4-19.1,23.2-35.7,19.4-48.9c-2.1-7.4-8.7-13.7-20.2-19.2l0,0c-2.3-1.1-5-1.1-7.3,0
	c-17.3,7.5-33.2,57.7-33.3,58.3l-0.1,0.4l-0.3,0.3c-18,23.7-39.1,22.2-56,20.9c-10.1-0.7-18.1-1.3-23,3.5s-6.5,15.1-5.3,31.7
	c4.4,63.5-31,76.4-59.4,86.8c-16,5.8-29.7,10.9-34.5,23.3c-5,13.3,0.4,34,17.2,65.1c40.1,74.4,17.7,92.1-4,109.2
	c-18.2,14.3-35.3,27.8-14.9,76.8c20.9,50.3,19.9,104.5,19.2,144.1c-0.5,27-0.9,48.4,6.6,52.1c4.4,2.2,12.7-1.5,24.8-10.9
	C718.8,1694.2,776.3,1571.4,836.8,1531.6z"/>
<linearGradient id="SVGID_9_" gradientUnits="userSpaceOnUse" x1="754.855" y1="335.8665" x2="602.8751" y2="791.7966" gradientTransform="matrix(1 0 0 -1 0 2000)">
	<stop  offset="1.000000e-02" style="stop-color:#1A2257"/>
	<stop  offset="1" style="stop-color:#5E60F2"/>
</linearGradient>
<path class="st10" d="M591.2,1151.8c30.9-10.6,24.5,49,37.5,93s145.2,19.2,89.8,129.6s70.2,36.9,32.6,133.2s-3.3,199.3-44.1,173.1
	s-22.9-147.4-65.3-161.8s-49.3-31.2-7.3-70.4s-110.1-78-72.5-157.1S555.5,1164,591.2,1151.8z"/>
<path class="st11" d="M692.8,1674.2c3.9-16.5,37.1-161.5,6.1-179.1c-27.3-15.4-26.6-75.6-22.4-132.3c3.8-50.2-60.8-73.7-63.5-74.7
	l-1.6,4.6c0.6,0.2,63.8,23.2,60.3,69.7c-4.4,58.3-4.8,120.1,24.8,136.9c23.5,13.3,1.9,129.9-8.5,173.7L692.8,1674.2z"/>
<linearGradient id="SVGID_10_" gradientUnits="userSpaceOnUse" x1="637.2658" y1="38.1041" x2="713.2559" y2="365.6742" gradientTransform="matrix(1 0 0 -1 0 2000)">
	<stop  offset="0" style="stop-color:#C9C4C1"/>
	<stop  offset="1" style="stop-color:#FFF6DE"/>
</linearGradient>
<polygon class="st12" points="809.4,1622.6 765.3,1789.9 666.7,1789.9 622.6,1622.6 "/>
<linearGradient id="SVGID_11_" gradientUnits="userSpaceOnUse" x1="603.0469" y1="293.7289" x2="789.847" y2="293.7289" gradientTransform="matrix(1 0 0 -1 19.53 2000)">
	<stop  offset="0" style="stop-color:#C9C4C1"/>
	<stop  offset="1" style="stop-color:#FFF6DE"/>
</linearGradient>
<path class="st13" d="M809.4,1622.6c0,0-97.1,18.2-97.1,167.3h-45.6l-44.1-167.3H809.4z"/>
<linearGradient id="SVGID_12_" gradientUnits="userSpaceOnUse" x1="1903.932" y1="1380.0039" x2="1903.932" y2="1696.5939" gradientTransform="matrix(1 0 0 -1 0 2000)">
	<stop  offset="0" style="stop-color:#D1D7E0"/>
	<stop  offset="1" style="stop-color:#EBEBFF"/>
</linearGradient>
<path class="st14" d="M1758.4,219.7h291.1c26.6,0,48.2,21.6,48.2,48.2v252.6c0,26.6-21.6,48.2-48.2,48.2h-291.1
	c-26.6,0-48.2-21.6-48.2-48.2V268C1710.2,241.3,1731.8,219.7,1758.4,219.7z"/>
<rect x="1887.1" y="502.7" class="st3" width="30.7" height="5.7"/>
<path class="st3" d="M1996,282.9v5.6h32.8v30.8h5.6v-36.3H1996z M1773.5,319.2h5.6v-30.8h32.8v-5.6h-38.3L1773.5,319.2z
	 M2028.8,477.9v30.8H1996v5.6h38.3v-36.3H2028.8z M1779,477.9h-5.6v36.3h38.3v-5.6H1779L1779,477.9z"/>
<rect x="1374.1" y="763.5" class="st3" width="41.1" height="7.6"/>
<path class="st3" d="M1517.7,469.9v7.4h43.8v41.1h7.5v-48.5H1517.7z M1220.4,518.4h7.4v-41.1h43.8v-7.4h-51.2L1220.4,518.4z
	 M1561.4,730.4v41.1h-43.8v7.4h51.3v-48.5L1561.4,730.4z M1227.8,730.4h-7.4v48.5h51.2v-7.4h-43.7L1227.8,730.4z"/>
<path class="st15" d="M2324.1,1003.2h-68.5c-4.5-32.8-10-70.2-10-70.2s-2.8,30.9-6.1,70.2h-274c-2.5-35.4-5.5-61.8-6.6-62.4
	c-1.6-0.8-11.4,30.6-19.5,62.4h-74.2c19.1-82.2,54.7-214.1,75.3-222c29.3-11.3,148.7-48.1,148.7-48.1h68.2
	c0,0,121.1,34.6,132.4,72.1C2298.6,835.2,2318.4,933.9,2324.1,1003.2z"/>
<path class="st16" d="M2126.3,512c0,0,63.6,10,54,109.6s-65.9,91.4-69.6,91.3s-56.4,1.8-60.5-119.8
	C2050.2,593.2,2048.4,503.3,2126.3,512z"/>
<path class="st16" d="M2156,683.6c0,0-1.8,41,2.2,49.8s-52.5,37.3-87,5.6c0,0,8.3-44.5,6-60.3S2156,683.6,2156,683.6z"/>
<path class="st16" d="M2181.2,593.5c0,0,7-7.5,9.5,0.1s-10.8,41.2-9.9,42.7c0,0-1.3,2.9-2.9,1.3S2181.2,593.5,2181.2,593.5z"/>
<path class="st16" d="M2050.9,592.3c0,0-6.8-7.6-9.5-0.1s10,41.4,9.1,42.9c0,0,1.2,2.9,2.9,1.4S2050.9,592.3,2050.9,592.3z"/>
<path class="st17" d="M2181.2,608.8l-9.1,12.2c0,0,0.3-26.7-1.2-30.9s-3.7-17-4.9-20s-54.6-18-101.9,4.4c0,0,2.1,19.2-2.4,20.9
	s-2.3,31.3-2.3,31.3l-7.5-8.5c0,0-11.5-76.6-8.6-84.6s11.9-56,108.7-27.5c0,0,30.2-6.4,36.3,14.5
	C2194.2,541.4,2181.2,608.8,2181.2,608.8z"/>
<path class="st16" d="M2158.2,733.4c0,0,14.4,3.1-45.7,60.7c0,0-42.6-47.2-41.2-55S2158.2,733.4,2158.2,733.4z"/>
<polygon class="st18" points="2112.5,794.1 2128.9,822.1 2177.5,739.5 2156.5,724.8 "/>
<polygon class="st18" points="2112.5,794.1 2072.7,730.8 2050.1,745.3 2090.6,822.1 "/>
<path class="st18" d="M2100.2,969.5c0.5,9.3,0.7,20.8,0.7,33.7h-2.3c0-12.8-0.2-24.2-0.7-33.6c-3.7-70.3,13.3-155.7,13.4-175.8
	l2.2,0.4C2113.4,814.3,2096.5,899.6,2100.2,969.5z"/>
<path class="st19" d="M2083.2,701.2c0,0,15.1,16,36.5,11.7s30.8-14,30.8-14s-8.4,21.1-33.1,23.1S2083.2,701.2,2083.2,701.2z"/>
<path class="st20" d="M1345.8,472.7h-0.1c-1.4-0.3-3.7-7.2-4.2-8.6c-0.1-0.4-0.3-1.1-0.6-2c-1.8-5.5-6-18.4-4.3-23.4
	c0.5-1.6,1.3-2.5,2.4-2.7c2.3-0.5,4.9,2.4,5,2.5l0.1,0.1v0.1c0.6,5.4,3.5,32.6,2.2,33.8C1346.1,472.6,1345.9,472.7,1345.8,472.7z
	 M1339.4,436.4c-0.1,0-0.3,0-0.4,0c-0.9,0.2-1.5,1-2,2.3c-1.6,4.8,2.7,18,4.3,23c0.3,1,0.5,1.7,0.6,2c1,3.3,2.9,8,3.8,8.3
	c0,0,0.1,0,0.1,0c0.8-1.1-1-21-2.4-33.3C1343.1,438.4,1341.2,436.4,1339.4,436.4L1339.4,436.4z"/>
<path class="st21" d="M1393.1,364.5c0,0,35-3.7,47.7,30.2s24.5,44.9,26,62.7c6,71.9,39.6,55.6,30.1,97.1s-16,47.7-16,47.7
	l-80.3-15.7l-81.3,0.3c0,0,31.8-15.9,24.7-49.7s-24.7-89.3-14.8-127S1372.2,367.3,1393.1,364.5z"/>
<path class="st20" d="M1435.9,472.7c-0.2,0-0.3-0.1-0.4-0.2c-1.3-1.2,1.7-28.4,2.2-33.8v-0.1l0.1-0.1c0.1-0.1,2.7-3,5-2.5
	c1.1,0.2,1.9,1.1,2.4,2.7c1.6,4.9-2.5,17.8-4.3,23.4c-0.3,1-0.5,1.7-0.6,2c-0.4,1.4-2.7,8.3-4.2,8.6L1435.9,472.7z M1438.2,438.8
	c-1.3,12.3-3.2,32.2-2.4,33.3c0,0,0,0,0.1,0c0.8-0.2,2.7-5,3.8-8.3c0.1-0.4,0.3-1.1,0.6-2c1.6-5,5.9-18.3,4.3-23
	c-0.5-1.4-1.1-2.2-2-2.3C1440.8,436.1,1438.6,438.4,1438.2,438.8L1438.2,438.8z"/>
<path class="st22" d="M1557.8,687.7h-50c-10.4-18.9-18.8-33.7-18.8-33.7s-6.7,12.3-12,33.7h-168.3c-2.2-11.6-2.9-23.4-2.2-35.2
	c0,0-9,16.3-19.4,35.2h-56.6c15-28.1,43.1-79.3,49.5-86c8-8.4,54.6-40.6,87.8-51.1s52.1-0.4,52.1-0.4s34.1,6.2,65.7,18.7
	C1497.9,573.9,1532.2,637.1,1557.8,687.7z"/>
<path class="st23" d="M1397.7,384.2c0,0,46.4,6.7,39.6,75.2s-47.7,63.1-50.5,63s-41.1,1.4-44.4-82.2
	C1342.4,440.3,1340.9,378.5,1397.7,384.2z"/>
<path class="st23" d="M1418.3,510.3c0,0-2.9,35.6,4,46.3s-5.9,25.2-32.1,20.2s-24.7-19.8-24.7-19.8s7.3-22,5.2-39.6
	C1368.6,499.8,1418.3,510.3,1418.3,510.3z"/>
<path class="st21" d="M1392.4,409.1c0,0,21.7,22.8,31.7,34.3s11.2,33.8,11.2,33.8s17-20.7,9.9-44.8s-23.9-71.1-66.4-56.6
	s-44.1,77.9-39.1,109.4C1339.8,485.1,1358.9,415.6,1392.4,409.1z"/>
<path class="st23" d="M1434.6,553.4c0,0-32.2,81.5-51.7,95.7c0,0-25.7-83.1-23.9-95.3C1359,553.8,1397.7,538.6,1434.6,553.4z"/>
<path class="st21" d="M1366.6,533.7c0,0-57.4,51-42.5,82.9c12.7,27.2,57.8,10.5,50.3-18S1366.6,533.7,1366.6,533.7z"/>
<path class="st24" d="M1374.1,519.3c0,0,19.8,9.3,39-4.5c-4,7.1-11.3,11.8-19.5,12.6C1379.5,529,1374.1,519.3,1374.1,519.3z"/>
<path class="st25" d="M1883.2,330.8c0,0-19,71.6-23,87.7c-1.2,4.9-5,13.3-9.8,22.8c0,0.1-0.1,0.1-0.1,0.2c-0.9,1.8-1.5,3.8-1.8,5.8
	c-0.8,6,1.5,10.7-2.4,17.8l-0.7,3h-37.7c4.4-13,10-29.7,14.4-43c3.8-11.3,6.7-20.3,7.5-22.9c2.3-7.8,10.9-32.9,18.1-49.6
	c2.5-5.8,12.3-11.6,20.9-15.7C1876.4,333.2,1883.2,330.8,1883.2,330.8z"/>
<path class="st26" d="M1858,228.5c0,0-12-77.6,52.3-76.2c64.3,1.4,63.5,39.8,62.3,77.9s-25.8,35.2,2,88.3s-24.1,53-24.1,53
	l-40.3-55.3L1858,228.5z"/>
<path class="st20" d="M1903.3,159.8c0,0-43.6,6.9-45.3,68.8s11.7,75.1,49.9,62.2c38.1-12.9,50.1-77.6,51-87.7
	S1962,152.3,1903.3,159.8z"/>
<path class="st27" d="M1979.8,375c0.1,21.3-24.3,72.2-28.1,88c-0.4,1.8-0.9,3.5-1.4,5.1h-118.9c-0.6-7.3-1.2-13.6-1.5-17.2
	c-0.9-11.6-12.7-36.7-12.3-48.4c0.4-11.9,6.3-22.1,14.4-34.8c2.5-3.9,5.2-7.9,7.8-11.8c8.7-12.7,17.3-24.2,21.5-28.2
	c2.7-2.5,5.6-4.8,8.7-6.9l0,0c2.8-1.9,5.8-3.5,8.9-4.7l37.4-6c0,0,23.3,8.5,36.8,11.6C1953.2,321.7,1979.4,325.5,1979.8,375z"/>
<path class="st27" d="M1870.1,320.8l-21.7,34.2l-20,31.6c0-0.2,1.4-5,3.6-18.8c0.4-2.6,0.9-5.6,1.4-8.9c0.2-1,0.4-2,0.6-2.9l0,0
	C1842.6,336.2,1869.1,321.3,1870.1,320.8L1870.1,320.8z"/>
<path class="st20" d="M1932.4,262.8c-3.8,7.1-7.8,51.4-7.8,51.4s-53.3,20.1-47.8,8.8c2.5-5.2,3.2-11.9,3.2-17.7
	c0-3.6-0.2-7.2-0.6-10.8c-0.1-1.2-0.2-1.8-0.2-1.8S1936.2,255.7,1932.4,262.8z"/>
<path class="st26" d="M1885.5,204.2c0,0,22.4,36.4,42.7,50.7s10,25.8,10,25.8s53.1-111.8,2.6-119.5s-81.4-8.3-82.8,67.3
	C1858,228.5,1880.9,203.6,1885.5,204.2z"/>
<path class="st28" d="M1909.8,290c-8.2,12.1-29.8,15.3-29.8,15.3l0,0c0-3.6-0.2-7.2-0.6-10.8C1893.3,297.2,1909.8,290,1909.8,290z"
	/>
<path class="st29" d="M1834.1,355.7L1834.1,355.7c0,0-1.2,2.4-2.1,12l7.8-11.8c0,0,14-20.1,18.8-25.3c3.5-3.6,7.3-6.9,11.4-9.8
	C1870.1,320.8,1842.5,334.1,1834.1,355.7z"/>
<path class="st27" d="M1940.1,385.7c0,0,34.2-13.4,44.3-14.2c0,0-6.9-54.9-40.5-49.1S1940.1,385.7,1940.1,385.7z"/>
<path class="st20" d="M1879,316.1c0,0-25.1,38.6-16.6,42s54.5-4.5,74-41.2C1936.5,316.9,1907.2,301.9,1879,316.1z"/>
<path class="st25" d="M1984.4,371.5c-1.7,30.3-10.3,59-17.4,85.3c-1,3.8-2,7.6-2.9,11.3h-69.6c-0.2-10.4-0.1-19.6,0.2-27.3
	c3.5-84,30.1-128.2,30.1-128.2s8.5,2.9,33,9.8c16.8,4.7,23.1,26.1,25.4,39c0,0,0,0.1,0,0.1C1983.8,364.9,1984.2,368.2,1984.4,371.5z
	"/>
<path class="st25" d="M1879,316.1c-3.8,6.7-7.3,13.7-10.3,20.8c-8.2,18.9-18.5,48.8-19.4,81.8c-0.3,10.6-2.4,27.8-5.6,49.4h-13.9
	c-1.1-14.6-3.7-29-7.7-43c-1.9-6.8-3.6-11.8-4.6-15c-4.4-15.1,9.7-35.1,14.5-42.3S1848.1,327.6,1879,316.1z"/>
<path class="st25" d="M2006.6,468.1h-37.4c0-2.4-0.8-6.4-2.2-11.3c-6.8-24.1-26.9-71.1-26.9-71.1s-30.1-49.1-1.6-61.7
	c28.5-12.5,40.8,22.5,44.6,37.4c0,0,0,0.1,0,0.1C1984.1,365.2,2001.1,429.9,2006.6,468.1z"/>
<path class="st20" d="M1397,1168.9c0,0,13.1-0.2,17.7-5.2s12.9-9.6,15.5-10.8c3.5-1.7,13.3-11.2,14.5-6.6s-15.5,16.4-18.7,19.5
	s13.9,4.6,16.4,7.6s-6.2,35.4-17.6,32.9s-20.7-14-22.9-14s-8.4-1.4-8.4-1.4L1397,1168.9z"/>
<path class="st20" d="M1440,1172.1c0,0,34,10.4,35.4,13.3s0.4,5.1-2.8,4.3s-33.3-8.9-33.3-8.9s37.2,20.3,38.8,22.3
	c1,1.2-0.7,5.4-2.4,5.2s-40.1-17.8-40.1-17.8s34.7,19,35.5,21.3c0.8,2-1.6,5.6-4.3,4.4s-36.1-16.6-36.1-16.6s24.2,15.8,23.8,18.4
	c-0.2,1.6-1.5,5.3-7.6,1s-21.7-12.6-21.7-12.6L1440,1172.1z"/>
<path class="st30" d="M1325.5,1742.5c0,0,10.9,16.3,26.2,19.8s30.4,9.1,30.5,18.8s-44.2,15.4-61.7,5.7
	c-26.1-14.5-28.8-10.2-31.7-17.4s3.5-26.7,3.3-29C1291.8,1737.6,1325.5,1742.5,1325.5,1742.5z"/>
<path class="st31" d="M1323.8,1734.4c0,0,2,7.9,1.7,8.1s-34.5,4.2-33.4-2.1c0.8-5.1,2-10.7,2-10.7L1323.8,1734.4z"/>
<path class="st30" d="M1110.8,1741.4c0,0,7.8,15.6,21.1,20.9c14.2,5.7,25.6,12.2,25.3,21.6s-34.7,18.9-59.8,0.9
	c-15.8-11.4-20.9-11.5-23.4-18.7s4.4-25.8,4.3-28.1C1078.2,1735.3,1110.8,1741.4,1110.8,1741.4z"/>
<path class="st31" d="M1111.2,1733.3c0,0-0.1,8-0.4,8.1s-33.3,2.9-32.5-3.3c0.7-3.7,1.7-7.4,3.2-10.8L1111.2,1733.3z"/>
<path class="st32" d="M1232.3,1256.4c0,0,43.4,166.2,59.9,204.7c15.3,35.6,20.3,85.4,22.5,110.4c2.7,31.4,18.4,154,20.3,163.2
	s-51,5.1-51,5.1s-36.5-211.8-51.6-242.7c-10.1-20.6-68.7-168.6-75.4-160s-15,156.7-20,181.3s-20.2,219-20.2,219s-34.1,5-43.2-2.7
	c0,0-4.2-166-1-212.1c1.2-17.6-20.6-210.8,7.4-288.6C1094.6,1192.9,1232.3,1256.4,1232.3,1256.4z"/>
<path class="st33" d="M990.6,1137.2c0,1.9,3.6,9.5,9.3,20.4c8.4-16.8,15-30.5,17.1-35.6c7.1-16.7,43.5-54.9,43.5-54.9
	c0,0,0,0.1,0,0.1l0,0l0,0c0,0,0,0.1,0,0.2c0,0.1,0.1,0.2,0.1,0.3c0,0.1,0,0.1,0,0.2s0,0.1,0,0.2c2,7.4,14.2,53.5,14.6,76.3
	c0.5,24.7,7,70.5,7,70.5l0,0l7.6,1.1l16.8,2.4l2,0.3l4.9,0.7l44.6,6.3l15.8,2.2l2.1,0.3l9,1.3l25,3.5l6.4,0.9l0,0l4.8,0.7l6.6,0.9
	l0,0c0.2-0.2,6.4-8.8,5.4-27.7c-0.6-12.2-2.1-35.2-1.5-56.5c0-0.1,0-0.2,0-0.3c0-0.3,0-0.5,0-0.8c0-0.1,0-0.2,0-0.3l0,0
	c0.4-11.7,1.4-22.8,3.6-31.3c1.4-5.5,2.4-11,3.1-16.7l0.1-0.8c0.1-1,0.2-2,0.3-2.9c0.9-8.9,1-17.8,0.2-26.7v0.1
	c0.4,1,3.7,12.9,8,27.6c7.2,24.9,17.3,57.8,21.6,59.3c6.3,2.3,107.6,32.3,129.4,35.4c2.5,0.4,4,0.3,4.1-0.1l0.3-1
	c2.7-8.8,6.3-23.7,6.9-26.1l0.1-0.3l-3.9-1.2l-110.2-33l-50.4-145.3c-1.1-0.8-13.4-6.8-22.5-11.1c-9.2-4.4-20.3-10.8-30.4-16.3
	c-5.1-2.8-10-5.4-14.2-7.3l-0.6-0.3l0,0l-11.6-5.3l0,0l-3-0.3c-9.7-0.9-39.8-3.7-49.8-4.3c-0.8,0-1.5-0.1-2.1-0.1s-0.8,0-1,0
	c-1.3,0.1-7.5,2.2-15.6,5.3l0,0l-0.9,0.4l-1.2,0.4l-2.2,0.8l-4.5,1.8l-1.6,0.6c-16.3,6.5-35,14.5-39.4,17.7
	c-2.9,2.1-12.1,19.3-22.7,40.6c-13.6,43.7-30.9,110.6-31.5,127.1C990.6,1136.7,990.6,1137,990.6,1137.2z"/>
<path class="st34" d="M1228,1235.4c0,0,3.3,4,4.3,21c0,0-137.9-16.1-152.5-22.4c0,0-0.6-18.7,2.5-19.1
	C1085.7,1214.6,1228,1235.4,1228,1235.4z"/>
<path class="st20" d="M1110.4,937.1c0.4,21.7,42.3,33.5,42.3,33.5s17.5-22,13.3-24.1c-1.7-0.8-2.3-4.1-2.5-7.8
	c-0.1-3.3-0.1-6.6,0.2-9.8c0.1-1.5,0.2-2.5,0.2-2.5s-6-6.3-13.6-13.8c-13.3-13.2-31.6-30-31.6-23.3c0,0.4,0.1,0.9,0.2,1.3
	C1122.1,905.6,1110.4,937.1,1110.4,937.1z"/>
<path class="st30" d="M1113.9,1218.3c0,0-3,19-3.3,23.9l-6.4-1.3c0,0,1.8-20.1,2.8-23.4L1113.9,1218.3z"/>
<path class="st30" d="M1216.5,1233.2c0,0,2.4,17.3,2.5,23.8l-6.8-0.9c0,0-1.4-21.6-2.2-23.8L1216.5,1233.2z"/>
<path class="st28" d="M1126.5,905.4L1126.5,905.4c0.1,0.1,1.9,2.8,4.9,6.6c6.4,8.1,18.5,21.4,32.1,26.7c-0.1-3.3-0.1-6.6,0.2-9.8
	c1.4,0,2.8-0.2,4.2-0.5c-2.8-4.6-5.8-9.1-9.1-13.3l-8.4-2.5L1126.5,905.4z"/>
<path class="st20" d="M1118.5,889.5c3.6,7.9,7.1,13.6,8,15.9l0,0c1.3,2.4,3,4.7,4.9,6.6c6.9,7.4,19.8,17.3,32.4,16.9
	c1.4,0,2.8-0.2,4.2-0.5c5.1-1.1,11.1-3.5,14.4-10c26.1-51.2,7.2-93.1,7.2-93.1s-71.5-20.2-82.7,1.3
	C1099.1,841.8,1109.9,871,1118.5,889.5z"/>
<path class="st35" d="M1189.6,825.4c0,0,6.6-0.4,8.3-13s-1.7-15.8-1.7-15.8s-29.5-12.3-40.1-14s-36.7-3.2-42.8,3.8
	c0,0-14.8-3.5-18.9,21.2c-6.4,39.1,21.9,77,21.9,77s-0.2-25.5,5.4-28.9s10.5,4.7,10.5,4.7l11.5,2.1c0,0-17.5-37.8,3.5-39.2
	S1177.6,827.6,1189.6,825.4z"/>
<path class="st20" d="M1131.9,850.2c-1.1-11.3-21.4-15.5-20.1-3.8s11.4,23.1,16,22.7S1132.7,858.8,1131.9,850.2z"/>
<path class="st36" d="M999.9,1157.7c8.9,16.9,22.8,41.8,36.7,65.9c-1.8,3.4-3.6,6.8-5.3,10.1c-4,7.5-7.5,15.3-10.5,23.3
	c-3.2,8.8-7.5,31.4,0.8,35.6l44.1,24.3l0.9-2.5c1.5-4,4.6-12.4,9-23.4c0.1-0.3,0.6-1.4,1.2-2.9c0.9-2.1,2.1-5,3.6-8.4
	c0.7-1.5,1.3-3.1,2-4.8l2.5-5.7c1.2-2.8,2.4-5.6,3.5-8.2c3-7,5.4-12.5,5.4-12.5l0.4-1c1.4-3.1,2.9-6.2,4.4-9.3
	c2.3-4.8,4.7-9.6,7.2-14.3l0.7-1.4c0.4-0.8,0.9-1.7,1.3-2.5l0.8-1.5l0.2-0.3l0.3-0.6c12.8-23.3,27.1-42.7,31.7-71.3
	c0.4-2.8,0.9-5.5,1.3-8.2c0.7-4.5,1.3-9,1.8-13.4c0.2-1.7,0.4-3.3,0.6-4.9c2.3-19,3.7-36,4.8-47.8c3.4-36.8-19.1-76.7-36.4-101.3
	c-5.7-8.2-11.9-16.1-18.5-23.7l-0.1-0.1l-0.9,0.4l-1.2,0.4l-2.2,0.8l-4.5,1.8l-1.6,0.6c-16.8,6.6-52.1,16.3-56.5,19.5
	c-2.6,1.8-8.3,18.6-14.9,39.8c-13.6,43.7-21.7,109.6-22.1,126c0,0.3,0,0.5,0,0.8C990.6,1139.1,994.2,1146.7,999.9,1157.7z
	 M1066.9,1149.4c0,8.2-2.7,17.6-6.8,27.6c-0.1,0.3-0.2,0.5-0.3,0.8c-2.8-6-5.5-11.8-7.9-17.2l0,0c-6.6-14.7-11.1-26.2-11.3-30.7
	c-1.6-29.1,19.8-62.7,19.8-62.7l0,0l0,0c0,0,0,0.1,0,0.2l0.1,0.3c0,0.1,0,0.1,0,0.2s0,0.1,0,0.2
	C1065.2,1085.5,1067,1149.4,1066.9,1149.4L1066.9,1149.4z"/>
<path class="st37" d="M1150.8,1259.3l-125.8,56c-7.1,3.2-15.4,0-18.6-7.2l-34.4-77.4c-3.2-7.1,0-15.4,7.2-18.6l125.8-56
	c7.1-3.2,15.5,0,18.6,7.2l34.4,77.4C1161.1,1247.8,1157.9,1256.1,1150.8,1259.3C1150.8,1259.3,1150.8,1259.3,1150.8,1259.3z"/>
<path class="st36" d="M1177.9,952.3c0,0,5.9,19.6,13.5,68.7l0,0c0.3,1.7,0.5,3.3,0.8,5l0.1,0.6c0.2,1.1,0.3,2.3,0.5,3.4l0.1,0.4
	c0.1,0.8,0.2,1.6,0.3,2.4c0.3,1.9,0.6,3.9,0.9,5.9c3.4,23.9,8.2,64.5,12.8,105.4l0,0c3.6,32.3,11.9,65.5,14.5,90.2l0,0
	c0.8,6.3,1.9,12.5,3.4,18.6c0.2,0.8,0.4,1.7,0.6,2.5c7.4,31.2,21.8,75.4,21.8,75.4l4.2-3.9l12.4-11.4c2.9-2.6,3.9-6.7,2.8-10.3
	c-6.9-22.2-30.2-100.5-34.5-155.6l0,0c2.1-19.4,7.5-45.3,6.7-49.1c0,0.1,0.1,0.3,0.1,0.4c2.5,6.8,5.2,14.3,7.9,21.5l0,0
	c7.4,19.4,14.9,37.4,18,38.6c7,2.6,132.4,39.6,133.3,34.4c0.1-0.5,0.2-1.1,0.3-1.7s0.2-1.2,0.4-1.8c1.6-7.1,4.4-17.2,6.3-24
	c0.3-1,0.6-2,0.8-2.8l1.4-4.6l-106-34.8l-53.5-139.9c-1-0.8-14.7-8.2-23.7-12.5c-9.4-4.5-21.3-10-31.9-14.9l-13.8-6.4L1177.9,952.3z
	"/>
<path class="st38" d="M1106.1,1000.9l20.4,11.5l-8.7,8.9l23.2,125.2c4.7-29.3,6.9-57.2,8.5-74.3c5.3-56.9-51.5-121.1-55-125
	c-2.7,1-5.7,2.2-8.7,3.4L1106.1,1000.9z"/>
<path class="st38" d="M1177.6,951.8c0,0,7.6,24.9,16.5,87c3.4,23.9,8.2,64.5,12.8,105.4l4.8-117.3l-9.7-10.5l8.6-10.8l-18.5-47.2
	c-5.1-2.3-9.8-4.5-13.8-6.4L1177.6,951.8z"/>
<path class="st39" d="M1093.4,947.6l17-10.5c0,0,0.5,9.3,42.3,33.5l-11.9,33.5L1093.4,947.6z"/>
<path class="st39" d="M1163.9,941.8c0,0-0.7,10-11.1,28.8l23.2,30.3l1.7-49.1L1163.9,941.8z"/>
<path class="st22" d="M1152.7,970.6c0,0-4.5,18-2.9,23c0,0,9.9,3.6,17-0.9C1166.8,992.7,1161.7,980.1,1152.7,970.6z"/>
<path class="st40" d="M1175.9,1230c2.5-12.7,0.1-50.7,0-52.3l-2.2,0.1c0,0.4,2.5,39.4,0,51.8L1175.9,1230z"/>
<path class="st41" d="M1158.3,1224.2c0,0,20.3,2.4,27,4.1l-0.9,22.8l-26.6-2.8L1158.3,1224.2z"/>
<path class="st22" d="M1162.7,991.1c0,0,22.6,57.2,18.9,121.1c-3.8,66.3-10.1,90.4-10.1,90.4l-14,17.5l-6.2-21.5
	c0,0,18.7-84.6,6.6-166.9c-2.2-14.9-5.4-43.2-5.4-43.2L1162.7,991.1z"/>
<path class="st20" d="M1094.7,1261.1c0,0,4.9,9.7,9.7,11.3s11.9,9.5,11.9,9.5l-34.2,18c0,0-9.1-17.8-9.5-29.1
	S1094.7,1261.1,1094.7,1261.1z"/>
<path class="st33" d="M1098,1262l2.3,4.6c0,0-21.7,15.9-27.6,16.9l-2-6.1L1098,1262z"/>
<path class="st36" d="M1100.2,1262.2c0,0-16.3,13.5-30,19.7l-61.5-107.8l39.2-21.4C1048,1152.7,1099.1,1254.1,1100.2,1262.2z"/>
<path class="st32" d="M1238,1071.6c0.8,15.3,0.7,29,0.7,29l0,0c0,0.1,0,0.5,0,1.2l0.1-0.8c2.5,6.8,5.2,14.3,7.9,21.5
	c0.6-7.8,0.8-15.6,0.6-23.4c-1.1-43-14.6-65.6-14.6-65.6C1235.8,1041,1237.3,1057.1,1238,1071.6z"/>
<path class="st20" d="M1772,929.7c0,0-0.6-7.9,0.3-11.6c1.6-6.4-0.8-16.7,7.3-21.7s31.1,16,32.9,21.8s-6.8,15.8-24.8,24.2
	S1772,929.7,1772,929.7z"/>
<path class="st20" d="M1777.1,898.5c5.6-8.2,11.6-16.1,18-23.7c9-10.5,21.7-22.3,24.3-20c4.1,3.4-7.4,11.9-15.7,22.9
	c-7.6,10.1-4.4,9.4-4.4,9.4s-0.9,0.2,9.5-9.3c11.2-10.1,23.7-20.5,25.9-18.8c2.8,2.2,2.9,2.7-0.6,7.1c2.5-2.1,3.5-1.7,4.4-0.7
	c5,5.1-9.1,22.5-14.7,29.5c4.3-5.3,8.1-8.7,9.2-3.6c1.2,5.8-19.9,29.6-26.6,38.9C1799.4,940.3,1777.1,898.5,1777.1,898.5z"/>
<path class="st42" d="M1507.5,1739.5c0,0,21.9,13,31.9,17.8s48.5,6.2,52.3,9.8s2.4,15.2-4,16.3s-53.3,5.4-69,1.8s-44.9,2.5-51.4,0.3
	s-2.3-37.2,0.2-45S1507.5,1739.5,1507.5,1739.5z"/>
<path class="st43" d="M1509.3,1725.2l-1.8,14.3c0,0-29.3,5.5-38.2,1l2.2-14.8L1509.3,1725.2z"/>
<path class="st44" d="M1626.9,1237.2c-0.3,9.9-2.1,31.4-4.2,53.9c-0.5,5-1,10.1-1.4,15.1c-2.9,30.3-5.9,58.4-5.9,58.4
	c-3.7,24.2-11.3,66.1-19.9,97.8l0,0c-2.5,9.2-5,17.4-7.5,24.2c-2.5,6.6-5,11.7-7.4,14.8c-18.2,23.2-59.8,229-59.8,229l-56.9-0.4
	c0,0,12.5-139.4,25.1-174.7c14-39.5,38.4-92.6,32.3-130.7c-3.8-23.9-8.7-99.9-8.7-99.9s-4.8-85.4,17.6-148
	C1535.8,1161.1,1626.9,1237.2,1626.9,1237.2z"/>
<path class="st42" d="M1667.3,1744.9c0,0,21.8,13.2,31.7,18.2s48.4,6.8,52.2,10.4s2.2,15.2-4.2,16.3s-53.4,4.8-69,0.9
	s-44.9,2-51.4-0.3s-1.9-37.2,0.7-45S1667.3,1744.9,1667.3,1744.9z"/>
<path class="st43" d="M1669.3,1730.6l-2,14.3c0,0-29.4,5.1-38.2,0.5l2.4-14.8L1669.3,1730.6z"/>
<path class="st44" d="M1601.3,1526.5c-1.5-45.5-5.5-75.8-17.2-102.1c-9.8-22.1-18.3-91.4-18.3-91.4s-26.7-81.3-21.3-147.5
	c1.3-16.5,104.4,25,104.4,25c2.3,9.6,9.2,40,11.6,62.5c14,128.6,8.7,212.3,8.7,212.3c-8,28.4,12.2,251.8,12.2,251.8h-58
	c0,0-15.2-79.5-16.8-128.9C1606.7,1608.2,1600.8,1534.4,1601.3,1526.5z"/>
<path class="st45" d="M1600,937.5c0,0,27,44.3,34.9,69c7.9,24.7,1.5,96.6,2.9,111c4.3,44.8,10.6,94.2,10.6,94.2l-90.6,58
	c-11.6-27.9-21.7-56.4-30.4-85.3c-14.2-47.3-15.3-89.9-15.2-118.3c0.4-89.2,48.7-139.6,48.7-139.6L1600,937.5z"/>
<path class="st20" d="M1633.3,818.6c0,0,18.6,19.9,13.3,25.1c-4.3,4.3,12.7,24.1,15.2,27.5s-7.6,8.8-9.2,11.8s-0.7,34.2-9.3,37.4
	s-52-0.2-65.8-8.6s-36-57-34.4-80.3S1600.7,784,1633.3,818.6z"/>
<path class="st20" d="M1615.8,913.7c0,0-0.3,2.7-0.8,6.8c-0.2,1.7-0.4,3.7-0.6,5.8c-0.1,1.3-0.2,2.6-0.3,4c0,0.4-0.1,0.7-0.1,1.1
	c-0.1,0.6-0.1,1.3-0.2,1.9c-0.2,3-0.4,6.1-0.6,9.2c-0.4,7.9-0.4,15.5,0.4,19.7c2.3,11.6-47.5-37.2-47.5-37.2
	c2.6-26.7,3.3-53.5,2.2-80.3C1566.3,802.2,1615.8,913.7,1615.8,913.7z"/>
<path class="st46" d="M1637.1,823c0,0,8.8-20.7-18.3-35.1c-31.9-16.9-65.7,25.6-70.2,28.1s-24.9,25.5-4.9,55.9
	c25.2,38.4,23.9,37.1,23.9,37.1s2.5-28.3,2.4-33.8c-0.3-10,25.9-11.2,25.9-11.2s-10.8-14.3,1.2-20.8S1623,821.6,1637.1,823z"/>
<path class="st20" d="M1582,860.4c-1.9-2.7-8.9-14.5-17.9-4.1s15.1,29.8,17.1,29.6S1598.1,882.9,1582,860.4z"/>
<path class="st47" d="M1653.5,1230.8c0,0-4.5-21.2-5.4-24.4l-132.5,22.1l1.4,17.1C1517,1245.6,1612.4,1239.9,1653.5,1230.8z"/>
<path class="st22" d="M1503.8,1137.4c0,0,20.3,87.9-11.5,190.4c-3.9,12.5,88.2-2,88.2-2L1503.8,1137.4z"/>
<path class="st22" d="M1620.8,1319.5c0,0-65.4,14.4-83.8,7.9c0,0-26.7-97.3-36.1-196c-0.7-7.6-1.3-15.3-1.8-22.9l0,0
	c-5.2-80.3,15.2-161.8,61.8-182.1c1.3,0.9,66.9,58.7,65.7,111.7c-0.1,3.6-0.1,7.2-0.2,10.8c0,6.5,0,13,0.1,19.6l0,0
	c0.4,20.1,1.7,40.2,3.4,59.7c0.2,2,0.4,4.1,0.6,6.1c0.3,3.3,0.7,6.5,1,9.8c0.5,4.3,1,8.6,1.5,12.8
	C1643.7,1245.2,1620.8,1319.5,1620.8,1319.5z"/>
<path class="st48" d="M1618.2,976.2c8.5,36.2,14.2,73.1,17,110.2c3.9,51.4,9.2,87.7,9.2,87.7l7.9,25.4l3.2-24.5
	c0,0-2.9-66.3-6.7-93.3c-3.9-27.2-5.6-61.7-27.3-106.5L1618.2,976.2z"/>
<path class="st48" d="M1616.8,976.2c1,0.9,2.3,1.5,3.6,1.7c2.1,0.3,5.1-3-5.6-17.2L1616.8,976.2z"/>
<path class="st49" d="M1566.8,919c0,0,30.5,28.7,48.6,35l3.5,27.5l-57.9-55.1L1566.8,919z"/>
<path class="st22" d="M1587.2,1030.1c-12-4.3-61.9-28.5-48.7-56.8s47.5-13.2,73.3-1.7c26.9,12,90.6,49,95.6,45.6s27-34.9,31-42
	s28-51.9,30.3-55.3s37.1,26,37.1,26s-62.7,111.3-79.5,129S1587.2,1030.1,1587.2,1030.1z"/>
<path class="st42" d="M1595.5,1462.3L1595.5,1462.3c-2.5,9.2-5,17.4-7.5,24.2l0,0l-19.8-118.3
	C1573.2,1379.4,1595.5,1462.3,1595.5,1462.3z"/>
<path class="st50" d="M1626.6,1068.4l-57.4-46.9c15.2,8.1,52.6,25.2,57.3,27.3C1626.4,1055.3,1626.5,1061.9,1626.6,1068.4z"/>
<path class="st28" d="M1615,920.4c-0.2,1.7-0.4,3.7-0.6,5.8c-0.1,1.3-0.2,2.6-0.3,4c-19-1.3-33.7-16.4-34.6-17.3
	C1587.2,919.1,1615,920.4,1615,920.4z"/>
<g class="st51">
	
		<linearGradient id="SVGID_13_" gradientUnits="userSpaceOnUse" x1="2351.3469" y1="1525.2489" x2="2390.717" y2="1525.2489" gradientTransform="matrix(1 0 0 -1 0 2000)">
		<stop  offset="0" style="stop-color:#D1D7E0"/>
		<stop  offset="1" style="stop-color:#EBEBFF"/>
	</linearGradient>
	<polygon class="st52" points="2360.6,484.3 2390.7,484.3 2381.5,465.2 2351.3,465.2 	"/>
	
		<linearGradient id="SVGID_14_" gradientUnits="userSpaceOnUse" x1="2337.2371" y1="1525.2489" x2="2353.647" y2="1525.2489" gradientTransform="matrix(1 0 0 -1 0 2000)">
		<stop  offset="0" style="stop-color:#D1D7E0"/>
		<stop  offset="1" style="stop-color:#EBEBFF"/>
	</linearGradient>
	<polygon class="st53" points="2346.5,484.3 2353.6,484.3 2344.4,465.2 2337.2,465.2 	"/>
	
		<linearGradient id="SVGID_15_" gradientUnits="userSpaceOnUse" x1="2238.2771" y1="1543.2539" x2="2364.377" y2="1543.2539" gradientTransform="matrix(1 0 0 -1 0 2000)">
		<stop  offset="0" style="stop-color:#D1D7E0"/>
		<stop  offset="1" style="stop-color:#EBEBFF"/>
	</linearGradient>
	<polygon class="st54" points="2242.3,461.5 2364.4,461.5 2360.3,452 2238.3,452 	"/>
</g>
<linearGradient id="SVGID_16_" gradientUnits="userSpaceOnUse" x1="1537.947" y1="1851.3589" x2="1589.667" y2="1851.3589" gradientTransform="matrix(1 0 0 -1 0 2000)">
	<stop  offset="0" style="stop-color:#D1D7E0"/>
	<stop  offset="1" style="stop-color:#EBEBFF"/>
</linearGradient>
<path class="st55" d="M1540.8,140.8h46.1c1.6,0,2.8,1.3,2.8,2.8v9.9c0,1.6-1.3,2.8-2.8,2.8h-46.1c-1.6,0-2.8-1.3-2.8-2.8v-9.9
	C1537.9,142.1,1539.2,140.8,1540.8,140.8z"/>
<linearGradient id="SVGID_17_" gradientUnits="userSpaceOnUse" x1="1537.947" y1="1813.9789" x2="1589.667" y2="1813.9789" gradientTransform="matrix(1 0 0 -1 0 2000)">
	<stop  offset="0" style="stop-color:#D1D7E0"/>
	<stop  offset="1" style="stop-color:#EBEBFF"/>
</linearGradient>
<path class="st56" d="M1540.8,178.2h46.1c1.6,0,2.8,1.3,2.8,2.8v9.9c0,1.6-1.3,2.8-2.8,2.8h-46.1c-1.6,0-2.8-1.3-2.8-2.8V181
	C1537.9,179.5,1539.2,178.2,1540.8,178.2z"/>
<linearGradient id="SVGID_18_" gradientUnits="userSpaceOnUse" x1="1537.947" y1="1776.6089" x2="1589.667" y2="1776.6089" gradientTransform="matrix(1 0 0 -1 0 2000)">
	<stop  offset="0" style="stop-color:#D1D7E0"/>
	<stop  offset="1" style="stop-color:#EBEBFF"/>
</linearGradient>
<path class="st57" d="M1540.8,215.6h46.1c1.6,0,2.8,1.3,2.8,2.8v9.9c0,1.6-1.3,2.8-2.8,2.8h-46.1c-1.6,0-2.8-1.3-2.8-2.8v-9.9
	C1537.9,216.9,1539.2,215.6,1540.8,215.6z"/>
<linearGradient id="SVGID_19_" gradientUnits="userSpaceOnUse" x1="1611.017" y1="1851.3589" x2="1625.7369" y2="1851.3589" gradientTransform="matrix(1 0 0 -1 0 2000)">
	<stop  offset="0" style="stop-color:#D1D7E0"/>
	<stop  offset="1" style="stop-color:#EBEBFF"/>
</linearGradient>
<path class="st58" d="M1613.8,140.8h9.1c1.6,0,2.8,1.3,2.8,2.8v9.9c0,1.6-1.3,2.8-2.8,2.8h-9.1c-1.6,0-2.8-1.3-2.8-2.8v-9.9
	C1611,142.1,1612.3,140.8,1613.8,140.8z"/>
<linearGradient id="SVGID_20_" gradientUnits="userSpaceOnUse" x1="1611.017" y1="1813.9789" x2="1625.7369" y2="1813.9789" gradientTransform="matrix(1 0 0 -1 0 2000)">
	<stop  offset="0" style="stop-color:#D1D7E0"/>
	<stop  offset="1" style="stop-color:#EBEBFF"/>
</linearGradient>
<path class="st59" d="M1613.8,178.2h9.1c1.6,0,2.8,1.3,2.8,2.8v9.9c0,1.6-1.3,2.8-2.8,2.8h-9.1c-1.6,0-2.8-1.3-2.8-2.8V181
	C1611,179.5,1612.3,178.2,1613.8,178.2z"/>
<linearGradient id="SVGID_21_" gradientUnits="userSpaceOnUse" x1="1611.017" y1="1776.6089" x2="1625.7369" y2="1776.6089" gradientTransform="matrix(1 0 0 -1 0 2000)">
	<stop  offset="0" style="stop-color:#D1D7E0"/>
	<stop  offset="1" style="stop-color:#EBEBFF"/>
</linearGradient>
<path class="st60" d="M1613.8,215.6h9.1c1.6,0,2.8,1.3,2.8,2.8v9.9c0,1.6-1.3,2.8-2.8,2.8h-9.1c-1.6,0-2.8-1.3-2.8-2.8v-9.9
	C1611,216.9,1612.3,215.6,1613.8,215.6z"/>
<linearGradient id="SVGID_22_" gradientUnits="userSpaceOnUse" x1="1374.077" y1="976.8689" x2="1444.7469" y2="976.8689" gradientTransform="matrix(1 0 0 -1 0 2000)">
	<stop  offset="0" style="stop-color:#D1D7E0"/>
	<stop  offset="1" style="stop-color:#EBEBFF"/>
</linearGradient>
<polygon class="st61" points="1390.6,1040.3 1444.7,1040.3 1428.2,1006 1374.1,1006 "/>
<linearGradient id="SVGID_23_" gradientUnits="userSpaceOnUse" x1="1348.767" y1="976.8689" x2="1378.217" y2="976.8689" gradientTransform="matrix(1 0 0 -1 0 2000)">
	<stop  offset="0" style="stop-color:#D1D7E0"/>
	<stop  offset="1" style="stop-color:#EBEBFF"/>
</linearGradient>
<polygon class="st62" points="1365.3,1040.3 1378.2,1040.3 1361.7,1006 1348.8,1006 "/>
</svg>
